<svg xmlns="http://www.w3.org/2000/svg" width="64" height="67" viewBox="0 0 104 107"><defs><style>.a,.b{fill:#ff98c2;}.a{opacity:0.18;}</style></defs><g transform="translate(-1405 -304)"><ellipse class="a" cx="52" cy="53.5" rx="52" ry="53.5" transform="translate(1405 304)"/><g transform="translate(1433.986 326.831)"><path class="b" d="M15.735,0A13.249,13.249,0,0,0,2.5,13.235v6.618a4.216,4.216,0,0,0,4.211,4.211h9.024a8.41,8.41,0,0,1-8.422-8.422,8.092,8.092,0,0,0,8.422-8.422,8.092,8.092,0,0,0,8.422,8.422,8.41,8.41,0,0,1-8.422,8.422h9.024a4.216,4.216,0,0,0,4.211-4.211V13.235A13.249,13.249,0,0,0,15.735,0Z" transform="translate(3.516 0)"/><path class="b" d="M28.17,12H9.024A9.034,9.034,0,0,0,0,21.024v8.422a1.805,1.805,0,0,0,1.8,1.8H23.838A19.118,19.118,0,0,1,28.17,12Z" transform="translate(0 16.877)"/><path class="b" d="M26.642,11A15.642,15.642,0,1,0,42.284,26.642,15.66,15.66,0,0,0,26.642,11Zm7.826,11.813-8.422,9.626a2.4,2.4,0,0,1-3.511.116l-4.813-4.813a2.406,2.406,0,0,1,3.4-3.4l2.994,2.994,6.728-7.691a2.407,2.407,0,1,1,3.622,3.172Z" transform="translate(15.471 15.471)"/></g></g></svg>