<svg xmlns="http://www.w3.org/2000/svg" width="64" height="64" viewBox="0 0 64 64"><defs><style>.a,.b{fill:#ff98c2;}.a{opacity:0.18;}</style></defs><g transform="translate(-960 -285)"><circle class="a" cx="32" cy="32" r="32" transform="translate(960 285)"/><g transform="translate(975 300)"><path class="b" d="M27.422,6.4a1.956,1.956,0,0,0-1.956-1.956h-.489V5.911A.978.978,0,0,1,24,6.889h-.978A.978.978,0,0,0,24,5.911V2.978a.978.978,0,0,0-1.956,0V4.444H19.6V5.911a.978.978,0,0,1-.978.978h-.978a.978.978,0,0,0,.978-.978V2.978a.978.978,0,1,0-1.956,0V4.444H13.733V5.911a.978.978,0,0,1-.978.978h-.978a.978.978,0,0,0,.978-.978V2.978a.978.978,0,0,0-1.956,0V4.444H8.355V5.911a.978.978,0,0,1-.978.978H6.4a.978.978,0,0,0,.978-.978V2.978a.978.978,0,0,0-1.956,0V4.444H3.956A1.956,1.956,0,0,0,2,6.4V9.333H27.422Z"/><path class="b" d="M45.378,40a5.378,5.378,0,1,0,5.378,5.378A5.378,5.378,0,0,0,45.378,40Zm0,6.355a.971.971,0,0,1-.354-.069l-1.785,1.428-.611-.764,1.787-1.429a.934.934,0,0,1,.474-.987V41.467h.978v3.069a.975.975,0,0,1-.489,1.82Z" transform="translate(-19.422 -19.422)"/><path class="b" d="M3.956,37.089H20.089a6.356,6.356,0,0,1,3.422-8.311H21.066V25.844H24V28.6a6.259,6.259,0,0,1,3.422-.133V19H2V35.133a1.955,1.955,0,0,0,1.956,1.956ZM21.066,20.467H24V23.4H21.066Zm-5.378,0h2.933V23.4H15.689Zm0,5.378h2.933v2.933H15.689Zm0,5.378h2.933v2.933H15.689ZM10.311,20.467h2.933V23.4H10.311Zm0,5.378h2.933v2.933H10.311Zm0,5.378h2.933v2.933H10.311ZM4.933,20.467H7.867V23.4H4.933Zm0,5.378H7.867v2.933H4.933Zm0,5.378H7.867v2.933H4.933Z" transform="translate(0 -8.689)"/></g></g></svg>