<svg xmlns="http://www.w3.org/2000/svg" width="64" height="64" viewBox="0 0 64 64"><defs><style>.a,.b{fill:#52e7ff;}.a{opacity:0.18;}</style></defs><g transform="translate(-1582 -289)"><circle class="a" cx="32" cy="32" r="32" transform="translate(1582 289)"/><g transform="translate(1598 305)"><path class="b" d="M29.333,19.014V5.333a2.669,2.669,0,0,0-2.667-2.667H23.333a.666.666,0,0,0-.667.667V6.667a1.333,1.333,0,1,1-1.776-1.249.667.667,0,0,0,.443-.628V.667A.667.667,0,1,0,20,.667v2H10a.666.666,0,0,0-.667.667V6.667A1.333,1.333,0,1,1,7.557,5.418.667.667,0,0,0,8,4.79V.667a.667.667,0,1,0-1.333,0v2h-4A2.669,2.669,0,0,0,0,5.333V26.667a2.669,2.669,0,0,0,2.667,2.667H19.014A7.33,7.33,0,1,0,29.333,19.014Zm-12,5.652a7.3,7.3,0,0,0,.284,2H2.667v-16h24v6.951a7.314,7.314,0,0,0-9.333,7.049Zm7.333,4.667A4.672,4.672,0,0,1,20,24.667a4.606,4.606,0,0,1,.578-2.2l6.291,6.291A4.607,4.607,0,0,1,24.667,29.333Zm4.088-2.464-6.291-6.291a4.607,4.607,0,0,1,2.2-.578,4.672,4.672,0,0,1,4.667,4.667A4.607,4.607,0,0,1,28.755,26.87Z"/></g></g></svg>