<svg xmlns="http://www.w3.org/2000/svg" width="64" height="64" viewBox="0 0 64 64"><defs><style>.a,.b{fill:#64ebc1;}.a{opacity:0.18;}</style></defs><g transform="translate(-1265 -285)"><circle class="a" cx="32" cy="32" r="32" transform="translate(1265 285)"/><g transform="translate(1278.986 296.723)"><path class="b" d="M140.614,4.019a2.437,2.437,0,0,1,2,2,.63.63,0,0,0,1.242,0,2.437,2.437,0,0,1,2-2,.63.63,0,0,0,0-1.242,2.437,2.437,0,0,1-2-2,.63.63,0,0,0-1.242,0,2.437,2.437,0,0,1-2,2,.63.63,0,0,0,0,1.242Zm0,0" transform="translate(-134.42)"/><path class="b" d="M700.79,393.023a2.437,2.437,0,0,1,2,2,.63.63,0,0,0,1.242,0,2.437,2.437,0,0,1,2-2,.63.63,0,0,0,0-1.242,2.437,2.437,0,0,1-2-2,.63.63,0,0,0-1.242,0,2.437,2.437,0,0,1-2,2,.63.63,0,0,0,0,1.242Zm0,0" transform="translate(-671.923 -373.259)"/><path class="b" d="M287.644,155.816a7.558,7.558,0,1,0,7.558,7.558A7.558,7.558,0,0,0,287.644,155.816Zm-5.038,7.558h-1.26a6.3,6.3,0,0,1,6.3-6.3v1.26A5.044,5.044,0,0,0,282.605,163.374Zm4.409,3.779v-.63h-1.26v-1.26h2.519a.63.63,0,0,0,0-1.259h-1.26a1.889,1.889,0,0,1,0-3.779v-.63h1.26v.63h1.259v1.26h-2.519a.63.63,0,0,0,0,1.26h1.26a1.889,1.889,0,1,1,0,3.779v.63Zm.63,2.519v-1.259a5.044,5.044,0,0,0,5.038-5.038h1.259A6.3,6.3,0,0,1,287.644,169.672Zm0,0" transform="translate(-268.75 -149.27)"/><path class="b" d="M0,648.9H5.038V638.2H0Zm1.889-4.409a1.259,1.259,0,1,1-1.26,1.259A1.259,1.259,0,0,1,1.889,644.493Zm0,0" transform="translate(0 -612.125)"/><path class="b" d="M185.041,612.466a1.7,1.7,0,0,0-1.642-.1l-8.63,4.085a.633.633,0,0,1-.27.063h-9.447a.63.63,0,0,1,0-1.26h7.872a1.574,1.574,0,1,0,0-3.149h-7.872a.63.63,0,0,1-.445-.185,7.67,7.67,0,0,0-9-1.333v10.965h15.849a10.72,10.72,0,0,0,5.364-1.441l8.165-4.727a1.706,1.706,0,0,0,.057-2.918Zm0,0" transform="translate(-149.307 -584.776)"/></g></g></svg>