<svg xmlns="http://www.w3.org/2000/svg" width="64" height="63" viewBox="0 0 106 105"><defs><style>.a,.b{fill:#ffe152;}.a{opacity:0.18;}</style></defs><g transform="translate(-364 -310)"><ellipse class="a" cx="53" cy="52.5" rx="53" ry="52.5" transform="translate(364 310)"/><g transform="translate(389 341)"><path class="b" d="M198.311.03c-.05,0-.092-.03-.144-.03h-21.5a6.007,6.007,0,0,0-6,6V8a2,2,0,1,0,4,0V6a2,2,0,0,1,2-2h9.318l-.61.2A4.021,4.021,0,0,0,182.668,8V38h-6a2,2,0,0,1-2-2V32a2,2,0,1,0-4,0v4a6.007,6.007,0,0,0,6,6h6v2a4,4,0,0,0,4,4,4.2,4.2,0,0,0,1.274-.2L199.958,43.8a4.02,4.02,0,0,0,2.71-3.8V4A4.008,4.008,0,0,0,198.311.03Zm0,0" transform="translate(-154.668)"/><path class="b" d="M21.414,115.249l-8-8A2,2,0,0,0,10,108.663v6H2a2,2,0,0,0,0,4h8v6a2,2,0,0,0,3.414,1.414l8-8A2,2,0,0,0,21.414,115.249Zm0,0" transform="translate(0 -96.663)"/></g></g></svg>