<svg xmlns="http://www.w3.org/2000/svg" width="64" height="64" viewBox="0 0 64 64"><defs><style>.a,.b{fill:#a1aaff;}.a{opacity:0.18;}</style></defs><g transform="translate(-639 -285)"><circle class="a" cx="32" cy="32" r="32" transform="translate(639 285)"/><g transform="translate(656.5 299.5)"><path class="b" d="M10.521,0A8.029,8.029,0,0,0,2.5,8.021v4.01a2.555,2.555,0,0,0,2.552,2.552h5.469a5.1,5.1,0,0,1-5.1-5.1,4.9,4.9,0,0,0,5.1-5.1,4.9,4.9,0,0,0,5.1,5.1,5.1,5.1,0,0,1-5.1,5.1H15.99a2.555,2.555,0,0,0,2.552-2.552V8.021A8.029,8.029,0,0,0,10.521,0Z" transform="translate(1.146)"/><path class="b" d="M17.071,12H5.469A5.474,5.474,0,0,0,0,17.469v5.1a1.094,1.094,0,0,0,1.094,1.094H14.446A11.586,11.586,0,0,1,17.071,12Z" transform="translate(0 5.5)"/><path class="b" d="M20.479,11a9.479,9.479,0,1,0,9.479,9.479A9.49,9.49,0,0,0,20.479,11Zm4.743,7.159-5.1,5.833a1.458,1.458,0,0,1-2.128.07l-2.917-2.917a1.458,1.458,0,0,1,2.062-2.062L18.949,20.9l4.078-4.661a1.459,1.459,0,1,1,2.195,1.922Z" transform="translate(5.042 5.042)"/></g></g></svg>