<svg xmlns="http://www.w3.org/2000/svg" width="64" height="64" viewBox="0 0 64 64"><defs><style>.a,.b{fill:#ffe152;}.a{opacity:0.18;}</style></defs><g transform="translate(-330 -288)"><circle class="a" cx="32" cy="32" r="32" transform="translate(330 288)"/><g transform="translate(351 307)"><path class="b" d="M93.293,12.523a6.058,6.058,0,0,0,4.427-1.834,6.058,6.058,0,0,0,1.834-4.427A6.059,6.059,0,0,0,97.72,1.834a6.26,6.26,0,0,0-8.854,0,6.059,6.059,0,0,0-1.834,4.427,6.058,6.058,0,0,0,1.835,4.427A6.06,6.06,0,0,0,93.293,12.523Zm0,0" transform="translate(-82.613 0)"/><path class="b" d="M21.636,254.749a15.465,15.465,0,0,0-.211-1.643,12.942,12.942,0,0,0-.4-1.652,8.157,8.157,0,0,0-.679-1.54,5.812,5.812,0,0,0-1.024-1.334,4.514,4.514,0,0,0-1.471-.924,5.083,5.083,0,0,0-1.877-.34,1.906,1.906,0,0,0-1.018.432c-.305.2-.662.429-1.06.683a6.074,6.074,0,0,1-1.372.6,5.327,5.327,0,0,1-3.355,0,6.059,6.059,0,0,1-1.371-.6c-.394-.252-.752-.482-1.061-.684a1.9,1.9,0,0,0-1.017-.432,5.077,5.077,0,0,0-1.877.34,4.51,4.51,0,0,0-1.471.924,5.812,5.812,0,0,0-1.023,1.334,8.173,8.173,0,0,0-.679,1.54,12.972,12.972,0,0,0-.4,1.651,15.411,15.411,0,0,0-.211,1.643c-.035.5-.052,1.014-.052,1.535a4.317,4.317,0,0,0,1.282,3.266,4.615,4.615,0,0,0,3.3,1.205H17.1a4.614,4.614,0,0,0,3.3-1.205,4.315,4.315,0,0,0,1.282-3.266c0-.524-.018-1.04-.053-1.536Zm0,0" transform="translate(0 -234.759)"/></g></g></svg>